<?xml version="1.0" encoding="UTF-8" standalone="no"?>
<svg
   xmlns:dc="http://purl.org/dc/elements/1.1/"
   xmlns:cc="http://creativecommons.org/ns#"
   xmlns:rdf="http://www.w3.org/1999/02/22-rdf-syntax-ns#"
   xmlns:svg="http://www.w3.org/2000/svg"
   xmlns="http://www.w3.org/2000/svg"
   xmlns:sodipodi="http://sodipodi.sourceforge.net/DTD/sodipodi-0.dtd"
   xmlns:inkscape="http://www.inkscape.org/namespaces/inkscape"
   sodipodi:docname="origin_logo2.svg"
   inkscape:version="1.0 (4035a4f, 2020-05-01)"
   id="svg1003"
   version="1.1"
   viewBox="0 0 210 297"
   height="297mm"
   width="210mm">
  <defs
     id="defs997" />
  <sodipodi:namedview
     inkscape:window-maximized="0"
     inkscape:window-y="23"
     inkscape:window-x="45"
     inkscape:window-height="855"
     inkscape:window-width="1290"
     showgrid="false"
     inkscape:document-rotation="0"
     inkscape:current-layer="layer1"
     inkscape:document-units="mm"
     inkscape:cy="560"
     inkscape:cx="400"
     inkscape:zoom="0.35"
     inkscape:pageshadow="2"
     inkscape:pageopacity="0.0"
     borderopacity="1.0"
     bordercolor="#666666"
     pagecolor="#ffffff"
     id="base" />
  <metadata
     id="metadata1000">
    <rdf:RDF>
      <cc:Work
         rdf:about="">
        <dc:format>image/svg+xml</dc:format>
        <dc:type
           rdf:resource="http://purl.org/dc/dcmitype/StillImage" />
        <dc:title></dc:title>
      </cc:Work>
    </rdf:RDF>
  </metadata>
  <g
     id="layer1"
     inkscape:groupmode="layer"
     inkscape:label="图层 1">
    <g
       style="stroke-width:0.257021"
       transform="matrix(3.111866,0,0,4.8645209,-267.53999,-583.00361)"
       id="g1632">
      <text
         transform="scale(1.4092228,0.70961099)"
         xml:space="preserve"
         style="font-style:normal;font-weight:normal;font-size:21.1629px;line-height:1.25;font-family:sans-serif;fill:#000000;fill-opacity:1;stroke:none;stroke-width:0.0680035"
         x="59.61121"
         y="223.44884"
         id="text1981"><tspan
           sodipodi:role="line"
           id="tspan1979"
           x="59.61121"
           y="223.44884"
           style="font-style:italic;font-variant:normal;font-weight:bold;font-stretch:normal;font-size:50.791px;font-family:sans-serif;-inkscape-font-specification:'sans-serif Bold Italic';fill:#f98013;fill-opacity:1;stroke-width:0.0680035"><tspan
             dy="0"
             style="font-size:45.1477px;fill:#f98013;fill-opacity:1;stroke-width:0.0680035"
             id="tspan1987">u</tspan></tspan></text>
      <g
         style="stroke-width:0.271279"
         transform="matrix(1.3186515,0,0,0.68073135,-32.594058,31.922294)"
         id="g1220">
        <path
           style="fill:#000000;stroke:#000000;stroke-width:0.0718892;stroke-miterlimit:4;stroke-dasharray:none"
           d="m 122.93343,159.09987 c -16.75928,-11.22196 -16.92772,-11.34279 -15.86222,-11.37928 1.78955,-0.0612 5.20409,0.37059 8.01919,1.01417 9.39741,2.14846 17.499,7.43291 21.93832,14.30968 1.76798,2.73874 3.75469,7.54168 3.07521,7.43438 -0.12743,-0.0197 -7.85396,-5.14061 -17.1705,-11.37895 z"
           id="path911"
           inkscape:transform-center-x="6.5803816"
           inkscape:transform-center-y="2.4187292" />
        <path
           style="fill:#000000;stroke:#000000;stroke-width:0.0718889;stroke-miterlimit:4;stroke-dasharray:none"
           d="m 127.24006,167.56721 c -6.9243,-1.52563 -12.70065,-2.88688 -12.83636,-3.02499 -0.28657,-0.29165 -7.67778,-16.46487 -7.5813,-16.58918 0.0551,-0.071 33.07285,22.0109 33.3845,22.32712 0.18068,0.18334 0.13454,0.1737 -12.96684,-2.71295 z"
           id="path913" />
        <path
           style="fill:#000000;stroke:#000000;stroke-width:0.0718889;stroke-miterlimit:4;stroke-dasharray:none"
           d="m 112.85091,167.25802 -6.46056,-4.26076 1.6094,-4.03247 c 0.88516,-2.21787 1.67344,-4.03357 1.75172,-4.0349 0.0783,-0.001 1.07044,2.01096 2.20478,4.47175 l 2.06244,4.47417 1.76397,0.39214 c 0.97019,0.21567 4.44288,0.9583 7.7171,1.65028 3.27422,0.69197 6.04837,1.34177 6.16477,1.44398 0.11641,0.10221 -2.16541,1.07925 -5.07071,2.1712 l -5.28235,1.98537 z"
           id="path915" />
        <path
           style="fill:#000000;stroke:#000000;stroke-width:0.0718889;stroke-miterlimit:4;stroke-dasharray:none"
           d="m 139.70252,188.36149 -0.55479,-1.04531 0.52536,-2.45665 0.52537,-2.45663 0.052,3.46646 c 0.0286,1.90654 0.042,3.48241 0.0294,3.50195 -0.0125,0.0195 -0.27231,-0.43489 -0.57744,-1.00982 z"
           id="path919" />
        <rect
           style="fill:#000000;fill-rule:evenodd;stroke:#000000;stroke-width:0.0718889;stroke-linecap:round;stroke-miterlimit:4;stroke-dasharray:none"
           id="rect1211"
           width="0.52916664"
           height="18.785416"
           x="139.7025"
           y="169.87294"
           rx="0.097478539"
           ry="0.12079367" />
      </g>
    </g>
  </g>
</svg>
